<?xml version="1.0" encoding="utf-8" standalone="no"?>
<!DOCTYPE svg PUBLIC "-//W3C//DTD SVG 1.1//EN"
  "http://www.w3.org/Graphics/SVG/1.1/DTD/svg11.dtd">
<svg xmlns:xlink="http://www.w3.org/1999/xlink" width="460.8pt" height="36pt" viewBox="0 0 460.8 36" xmlns="http://www.w3.org/2000/svg" version="1.1">
 <metadata>
  <rdf:RDF xmlns:dc="http://purl.org/dc/elements/1.1/" xmlns:cc="http://creativecommons.org/ns#" xmlns:rdf="http://www.w3.org/1999/02/22-rdf-syntax-ns#">
   <cc:Work>
    <dc:type rdf:resource="http://purl.org/dc/dcmitype/StillImage"/>
    <dc:date>2023-07-18T18:39:34.985583</dc:date>
    <dc:format>image/svg+xml</dc:format>
    <dc:creator>
     <cc:Agent>
      <dc:title>Matplotlib v3.7.2, https://matplotlib.org/</dc:title>
     </cc:Agent>
    </dc:creator>
   </cc:Work>
  </rdf:RDF>
 </metadata>
 <defs>
  <style type="text/css">*{stroke-linejoin: round; stroke-linecap: butt}</style>
 </defs>
 <g id="figure_1">
  <g id="patch_1">
   <path d="M 0 36 
L 460.8 36 
L 460.8 0 
L 0 0 
L 0 36 
z
" style="fill: none"/>
  </g>
  <g id="axes_1">
   <g id="line2d_1">
    <path d="M 73.832727 18.18 
L 84.654545 18.18 
L 95.476364 18.18 
L 106.298182 18.18 
L 117.12 18.18 
L 127.941818 18.18 
L 138.763636 18.18 
L 149.585455 18.18 
L 160.407273 18.18 
L 171.229091 18.18 
L 182.050909 18.18 
L 192.872727 18.18 
L 203.694545 18.18 
L 214.516364 18.18 
L 225.338182 18.18 
L 236.16 18.18 
L 246.981818 18.18 
L 257.803636 18.18 
L 268.625455 18.18 
L 279.447273 18.18 
L 290.269091 18.18 
L 301.090909 18.18 
L 311.912727 18.18 
L 322.734545 18.18 
L 333.556364 18.18 
L 344.378182 18.18 
L 355.2 18.18 
L 366.021818 18.18 
L 376.843636 18.18 
L 387.665455 18.18 
L 398.487273 18.18 
" clip-path="url(#p23544ddbe1)" style="fill: none; stroke: #24a49c; stroke-width: 1.5; stroke-linecap: square"/>
   </g>
  </g>
 </g>
 <defs>
  <clipPath id="p23544ddbe1">
   <rect x="57.6" y="4.32" width="357.12" height="27.72"/>
  </clipPath>
 </defs>
</svg>
